<?xml version="1.0" encoding="UTF-8"?>
<svg id="Calque_1" data-name="Calque 1" xmlns="http://www.w3.org/2000/svg" xmlns:xlink="http://www.w3.org/1999/xlink" viewBox="0 0 1700.51 293.7">
  <defs>
    <style>
      .cls-1 {
        fill: url(#Dégradé_sans_nom_2);
      }

      .cls-2 {
        fill: #f4f4f4;
      }

      .cls-3 {
        fill: #9ca3af;
      }

      .cls-4 {
        fill: url(#Dégradé_sans_nom_2-3);
      }

      .cls-5 {
        fill: url(#Dégradé_sans_nom_2-2);
      }
    </style>
    <linearGradient id="Dégradé_sans_nom_2" data-name="Dégradé sans nom 2" x1="52.74" y1="130.82" x2="247.24" y2="130.82" gradientUnits="userSpaceOnUse">
      <stop offset="0" stop-color="#fff"/>
      <stop offset="1" stop-color="#1d1d1b"/>
    </linearGradient>
    <linearGradient id="Dégradé_sans_nom_2-2" data-name="Dégradé sans nom 2" x1="0" y1="146.85" x2="293.22" y2="146.85" xlink:href="#Dégradé_sans_nom_2"/>
    <linearGradient id="Dégradé_sans_nom_2-3" data-name="Dégradé sans nom 2" x1="110.55" y1="140.65" x2="189.41" y2="140.65" xlink:href="#Dégradé_sans_nom_2"/>
  </defs>
  <g>
    <g>
      <path class="cls-1" d="M52.75,142.92c.37,25.9,10.84,50.15,29.53,68.31l6.38,6.15,22.88-23.55-6.37-6.18c-12.33-12-19.26-28.06-19.53-45.21-.52-34.95,27.57-64.22,62.98-65.27l1.39-.03c16.87,0,32.82,6.52,44.9,18.37,12.27,12.01,19.16,28,19.4,45.03.26,17.14-6.21,33.4-18.21,45.79l-6.14,6.38,23.52,22.85,6.24-6.35c18.11-18.63,27.89-43.2,27.52-69.16-.4-25.8-10.82-49.98-29.34-68.14-18.34-17.84-42.45-27.67-67.89-27.67l-2.9.06c-52.8,1.55-95.12,45.79-94.35,98.62Z"/>
      <path class="cls-5" d="M258.7,186.25c-12.38,28.67-33.98,50.96-60.83,62.76-15.01,6.6-30.83,9.95-47.04,9.95-37.15,0-72.35-18.04-94.19-48.26-5.44-7.5-9.99-15.76-13.56-24.54-23.69-58.62,4.43-126.24,62.7-150.75l7.92-3.37-10.14-23.92-3.28-8.12-8,3.43C16.67,35.24-19.85,123.06,10.91,199.2c4.59,11.35,10.52,22.07,17.6,31.85,28.35,39.23,74.07,62.65,122.3,62.65,19.49,0,38.57-3.73,56.72-11.08,37.3-15.07,66.52-43.77,82.29-80.81l3.39-7.94-31.96-13.53-2.56,5.91Z"/>
      <circle class="cls-4" cx="149.98" cy="140.65" r="39.43"/>
    </g>
    <g>
      <path class="cls-3" d="M52.75,142.92c.37,25.9,10.84,50.15,29.53,68.31l6.38,6.15,22.88-23.55-6.37-6.18c-12.33-12-19.26-28.06-19.53-45.21-.52-34.95,27.57-64.22,62.98-65.27l1.39-.03c16.87,0,32.82,6.52,44.9,18.37,12.27,12.01,19.16,28,19.4,45.03.26,17.14-6.21,33.4-18.21,45.79l-6.14,6.38,23.52,22.85,6.24-6.35c18.11-18.63,27.89-43.2,27.52-69.16-.4-25.8-10.82-49.98-29.34-68.14-18.34-17.84-42.45-27.67-67.89-27.67l-2.9.06c-52.8,1.55-95.12,45.79-94.35,98.62Z"/>
      <path class="cls-3" d="M258.7,186.25c-12.38,28.67-33.98,50.96-60.83,62.76-15.01,6.6-30.83,9.95-47.04,9.95-37.15,0-72.35-18.04-94.19-48.26-5.44-7.5-9.99-15.76-13.56-24.54-23.69-58.62,4.43-126.24,62.7-150.75l7.92-3.37-10.14-23.92-3.28-8.12-8,3.43C16.67,35.24-19.85,123.06,10.91,199.2c4.59,11.35,10.52,22.07,17.6,31.85,28.35,39.23,74.07,62.65,122.3,62.65,19.49,0,38.57-3.73,56.72-11.08,37.3-15.07,66.52-43.77,82.29-80.81l3.39-7.94-31.96-13.53-2.56,5.91Z"/>
      <circle class="cls-3" cx="149.98" cy="140.65" r="39.43"/>
    </g>
  </g>
  <path class="cls-2" d="M511.08,99.03c-11.98-7.46-26.79-11.19-44.43-11.19-20.12,0-36.18,4.75-48.16,14.24-11.98,9.5-19.89,21.49-23.73,35.95h-1.36V31.54h-24.08v227.24h21.71v-49.52h1.7c4.07,16.74,12.38,29.73,24.92,39.01,12.55,9.27,28.2,13.9,46.97,13.9s33.63-3.73,45.96-11.19c12.32-7.46,21.65-17.75,27.98-30.86,6.32-13.11,9.49-28.15,9.49-45.11s-3.17-31.99-9.49-45.1c-6.33-13.11-15.5-23.41-27.48-30.87ZM515.82,213.5c-5.2,9.39-12.66,16.17-22.38,20.35-9.72,4.19-21.36,6.28-34.93,6.28s-24.88-2.43-34.59-7.3c-9.73-4.86-17.24-11.98-22.55-21.37-5.32-9.38-7.97-20.63-7.97-33.74v-3.05c0-20.57,5.71-36.46,17.12-47.65,11.41-11.19,27.75-16.79,49.02-16.79,12.88,0,24.13,2.03,33.74,6.1,9.61,4.07,17.07,10.8,22.38,20.18,5.31,9.39,7.97,22.22,7.97,38.49s-2.6,29.11-7.8,38.49Z"/>
  <path class="cls-2" d="M700.5,97c-12.55-6.1-27.08-9.16-43.59-9.16-17.86,0-33.4,3.73-46.63,11.19-13.22,7.46-23.39,17.75-30.52,30.87-7.12,13.11-10.68,28.15-10.68,45.1s3.56,33.02,10.68,46.13c7.13,13.11,17.35,23.23,30.69,30.35,13.34,7.12,28.95,10.68,46.8,10.68,15.6,0,29.56-2.49,41.89-7.46,12.32-4.97,21.99-11.87,28.99-20.69,7.01-8.82,10.52-19.11,10.52-30.87v-2.37h-24.08v2.37c0,12.21-4.7,21.76-14.08,28.66-9.39,6.9-23.91,10.35-43.59,10.35-23.06,0-39.67-5.77-49.85-17.3-9.41-10.66-14.42-25.05-15.12-43.07h147.39c.45-2.26.84-4.69,1.19-7.29.34-2.6.51-5.37.51-8.31,0-16.72-3.62-30.91-10.86-42.56-7.24-11.64-17.12-20.52-29.67-26.62ZM607.07,124.98c10.17-11.41,26.67-17.13,49.51-17.13,19.89,0,35.16,4.58,45.79,13.73,10.62,9.16,15.94,22.56,15.94,40.19,0,1.76-.04,3.44-.1,5.09h-126.25c.81-17.47,5.82-31.46,15.1-41.88Z"/>
  <path class="cls-2" d="M809.2,51.21h-24.42v40.02h-29.85v20.69h29.85v93.6c0,19.67,4.91,33.47,14.75,41.38,9.84,7.92,23.12,11.87,39.85,11.87h36.29v-22.05h-30.52c-12.21,0-21.26-2.03-27.14-6.1-5.88-4.07-8.81-11.98-8.81-23.74v-94.97h66.48v-20.69h-66.48v-40.02Z"/>
  <path class="cls-2" d="M938.42,51.21h-24.42v40.02h-29.85v20.69h29.85v93.6c0,19.67,4.91,33.47,14.75,41.38,9.84,7.92,23.12,11.87,39.86,11.87h36.29v-22.05h-30.52c-12.21,0-21.26-2.03-27.14-6.1-5.88-4.07-8.81-11.98-8.81-23.74v-94.97h66.48v-20.69h-66.48v-40.02Z"/>
  <path class="cls-2" d="M1154.29,97c-12.55-6.1-27.08-9.16-43.59-9.16-17.86,0-33.4,3.73-46.63,11.19-13.22,7.46-23.39,17.75-30.52,30.87-7.12,13.11-10.68,28.15-10.68,45.1s3.56,33.02,10.68,46.13c7.13,13.11,17.35,23.23,30.69,30.35,13.34,7.12,28.95,10.68,46.8,10.68,15.6,0,29.56-2.49,41.89-7.46,12.32-4.97,21.99-11.87,28.99-20.69,7.01-8.82,10.52-19.11,10.52-30.87v-2.37h-24.08v2.37c0,12.21-4.7,21.76-14.08,28.66-9.39,6.9-23.91,10.35-43.59,10.35-23.06,0-39.67-5.77-49.85-17.3-9.41-10.66-14.42-25.05-15.12-43.07h147.39c.45-2.26.84-4.69,1.19-7.29.34-2.6.51-5.37.51-8.31,0-16.72-3.62-30.91-10.86-42.56-7.24-11.64-17.12-20.52-29.67-26.62ZM1060.86,124.98c10.17-11.41,26.67-17.13,49.51-17.13,19.89,0,35.16,4.58,45.79,13.73,10.62,9.16,15.94,22.56,15.94,40.19,0,1.76-.04,3.44-.1,5.09h-126.25c.81-17.47,5.82-31.46,15.1-41.88Z"/>
  <path class="cls-2" d="M1340.83,96.31c-8.25-5.65-18.82-8.48-31.7-8.48-11.76,0-21.71,2.2-29.85,6.62-8.14,4.41-14.64,10.34-19.51,17.8-4.86,7.47-8.08,15.72-9.66,24.76h-1.7v-45.79h-21.71v167.55h24.08v-90.9c0-18.99,3.9-33.58,11.7-43.75,7.8-10.17,20.18-15.26,37.13-15.26,14.7,0,25.21,3.51,31.55,10.51,6.32,7.01,9.49,17.64,9.49,31.88v12.88h24.08v-16.62c0-10.4-1.91-20.12-5.77-29.17-3.84-9.04-9.89-16.39-18.15-22.05Z"/>
  <rect class="cls-2" x="1519.41" y="31.54" width="36.63" height="39.01"/>
  <path class="cls-2" d="M1438.69,39.68c-11.99,5.43-21.08,13.18-27.31,23.23-4.83,7.83-7.76,16.94-8.84,27.3h-25.93v30.53h25.44v138.03h36.63V120.74h60.37v-30.53h-61.07c-.76-11.19,1.59-19.08,7.14-23.57,6.55-5.31,17.07-7.97,31.55-7.97h22.38v-27.13h-16.63c-17.18,0-31.76,2.72-43.74,8.14Z"/>
  <rect class="cls-2" x="1519.41" y="90.21" width="36.63" height="168.56"/>
  <path class="cls-2" d="M1700.51,120.74v-30.53h-61.05v-36.97h-36.29v36.97h-28.49v30.53h28.49v81.06c0,20.35,5.26,34.93,15.77,43.75,10.51,8.82,24.8,13.23,42.9,13.23h38.66v-32.9h-30.52c-10.4,0-18.1-1.75-23.06-5.26-4.99-3.5-7.47-10.45-7.47-20.85v-79.02h61.05Z"/>
</svg>