<?xml version="1.0" encoding="UTF-8"?>
<svg id="Calque_1" data-name="Calque 1" xmlns="http://www.w3.org/2000/svg" xmlns:xlink="http://www.w3.org/1999/xlink" viewBox="0 0 48 48">
  <defs>
    <style>
      .cls-1 {
        fill: url(#Dégradé_sans_nom_3);
      }

      .cls-2 {
        fill: #fff;
      }

      .cls-3 {
        fill: #050a11;
      }
    </style>
    <linearGradient id="Dégradé_sans_nom_3" data-name="Dégradé sans nom 3" x1="-.16" y1="2.24" x2="42.03" y2="46.52" gradientUnits="userSpaceOnUse">
      <stop offset="0" stop-color="#9ca3af"/>
      <stop offset=".21" stop-color="#bbbfc7"/>
      <stop offset=".56" stop-color="#f7f7f7"/>
      <stop offset=".61" stop-color="#f1f1f2"/>
      <stop offset=".67" stop-color="#e2e3e4"/>
      <stop offset=".74" stop-color="#c9cbcd"/>
      <stop offset=".81" stop-color="#a7a9ae"/>
      <stop offset=".89" stop-color="#7a7e85"/>
      <stop offset=".97" stop-color="#444a54"/>
      <stop offset="1" stop-color="#2b323d"/>
    </linearGradient>
  </defs>
  <rect class="cls-3" width="48" height="48"/>
  <g>
    <g>
      <path class="cls-2" d="M12.81,23.53c.04,3.09,1.29,5.98,3.52,8.15l.76.73,2.73-2.81-.76-.74c-1.47-1.43-2.3-3.35-2.33-5.39-.06-4.17,3.29-7.66,7.51-7.78h.17c2.01,0,3.91.77,5.35,2.19,1.46,1.43,2.29,3.34,2.31,5.37.03,2.04-.74,3.98-2.17,5.46l-.73.76,2.8,2.73.74-.76c2.16-2.22,3.33-5.15,3.28-8.25-.05-3.08-1.29-5.96-3.5-8.13-2.19-2.13-5.06-3.3-8.1-3.3h-.35c-6.3.19-11.34,5.47-11.25,11.77Z"/>
      <path class="cls-2" d="M37.37,28.7c-1.48,3.42-4.05,6.08-7.25,7.48-1.79.79-3.68,1.19-5.61,1.19-4.43,0-8.63-2.15-11.23-5.75-.65-.89-1.19-1.88-1.62-2.93-2.82-6.99.53-15.05,7.48-17.98l.94-.4-1.21-2.85-.39-.97-.95.41c-9.02,3.79-13.37,14.27-9.71,23.34.55,1.35,1.25,2.63,2.1,3.8,3.38,4.68,8.83,7.47,14.58,7.47,2.32,0,4.6-.44,6.76-1.32,4.45-1.8,7.93-5.22,9.81-9.64l.4-.95-3.81-1.61-.3.71Z"/>
      <circle class="cls-2" cx="24.4" cy="23.26" r="4.7"/>
    </g>
    <g>
      <path class="cls-1" d="M12.81,23.53c.04,3.09,1.29,5.98,3.52,8.15l.76.73,2.73-2.81-.76-.74c-1.47-1.43-2.3-3.35-2.33-5.39-.06-4.17,3.29-7.66,7.51-7.78h.17c2.01,0,3.91.77,5.35,2.19,1.46,1.43,2.29,3.34,2.31,5.37.03,2.04-.74,3.98-2.17,5.46l-.73.76,2.8,2.73.74-.76c2.16-2.22,3.33-5.15,3.28-8.25-.05-3.08-1.29-5.96-3.5-8.13-2.19-2.13-5.06-3.3-8.1-3.3h-.35c-6.3.19-11.34,5.47-11.25,11.77Z"/>
      <path class="cls-1" d="M37.37,28.7c-1.48,3.42-4.05,6.08-7.25,7.48-1.79.79-3.68,1.19-5.61,1.19-4.43,0-8.63-2.15-11.23-5.75-.65-.89-1.19-1.88-1.62-2.93-2.82-6.99.53-15.05,7.48-17.98l.94-.4-1.21-2.85-.39-.97-.95.41c-9.02,3.79-13.37,14.27-9.71,23.34.55,1.35,1.25,2.63,2.1,3.8,3.38,4.68,8.83,7.47,14.58,7.47,2.32,0,4.6-.44,6.76-1.32,4.45-1.8,7.93-5.22,9.81-9.64l.4-.95-3.81-1.61-.3.71Z"/>
      <circle class="cls-1" cx="24.4" cy="23.26" r="4.7"/>
    </g>
  </g>
</svg>