<?xml version="1.0" encoding="UTF-8"?>
<svg id="Calque_1" data-name="Calque 1" xmlns="http://www.w3.org/2000/svg" viewBox="0 0 293.22 293.7">
  <defs>
    <style>
      .cls-1 {
        fill: #f4f4f4;
      }
    </style>
  </defs>
  <path class="cls-1" d="M52.75,142.92c.37,25.9,10.84,50.15,29.53,68.31l6.38,6.15,22.88-23.55-6.37-6.18c-12.33-12-19.26-28.06-19.53-45.21-.52-34.95,27.57-64.22,62.98-65.27l1.39-.03c16.87,0,32.82,6.52,44.9,18.37,12.27,12.01,19.16,28,19.4,45.03.26,17.14-6.21,33.4-18.21,45.79l-6.14,6.38,23.52,22.85,6.24-6.35c18.11-18.63,27.89-43.2,27.52-69.16-.4-25.8-10.82-49.98-29.34-68.14-18.34-17.84-42.45-27.67-67.89-27.67l-2.9.06c-52.8,1.55-95.12,45.79-94.35,98.62Z"/>
  <path class="cls-1" d="M258.7,186.25c-12.38,28.67-33.98,50.96-60.83,62.76-15.01,6.6-30.83,9.95-47.04,9.95-37.15,0-72.35-18.04-94.19-48.26-5.44-7.5-9.99-15.76-13.56-24.54-23.69-58.62,4.43-126.24,62.7-150.75l7.92-3.37-10.14-23.92-3.28-8.12-8,3.43C16.67,35.24-19.85,123.06,10.91,199.2c4.59,11.35,10.52,22.07,17.6,31.85,28.35,39.23,74.07,62.65,122.3,62.65,19.49,0,38.57-3.73,56.72-11.08,37.3-15.07,66.52-43.77,82.29-80.81l3.39-7.94-31.96-13.53-2.56,5.91Z"/>
  <circle class="cls-1" cx="149.98" cy="140.65" r="39.43"/>
</svg>